<svg width="54" height="55" viewBox="0 0 54 55" fill="none" xmlns="http://www.w3.org/2000/svg">
<path d="M5.72088 5.36436H17.6531L21.4986 15.0685L15.3198 19.2259C14.956 19.4709 14.6577 19.8028 14.4514 20.192C14.2451 20.5813 14.1372 21.016 14.1372 21.4574C14.1452 21.7096 14.1372 21.4601 14.1372 21.4601V21.5165C14.1388 21.6364 14.1441 21.7563 14.1532 21.8759C14.1691 22.0958 14.1957 22.3935 14.2462 22.761C14.3498 23.4852 14.5491 24.4829 14.9371 25.6577C15.7185 28.0181 17.2492 31.0731 20.2309 34.0825C23.2127 37.0919 26.2396 38.6368 28.5755 39.4254C29.7422 39.817 30.7281 40.0155 31.451 40.1227C31.859 40.1802 32.2697 40.2161 32.6814 40.23L32.7159 40.2327H32.7372C32.7372 40.2327 33.0348 40.2166 32.7399 40.2327C33.2333 40.2324 33.7168 40.0936 34.1365 39.8316C34.5561 39.5696 34.8951 39.1949 35.1157 38.7495L36.8962 35.1553L48.685 37.1402V48.7272C43.0749 49.5452 27.9218 50.3526 16.0161 38.3364C4.11042 26.3202 4.90768 11.0238 5.72088 5.36436ZM19.6463 22.761L24.4484 19.5316C25.4629 18.8487 26.2138 17.8344 26.5753 16.6589C26.9367 15.4835 26.8867 14.2183 26.4336 13.0756L22.5881 3.3715C22.1935 2.37616 21.5125 1.52298 20.6328 0.922032C19.7532 0.321082 18.7153 -7.18649e-05 17.6531 1.20624e-08H5.58268C3.167 1.20624e-08 0.894824 1.69246 0.498854 4.33709C-0.404702 10.3505 -1.62982 28.1119 12.2584 42.129C26.1466 56.1461 43.7446 54.9069 49.7028 53.9977C52.3231 53.5953 54 51.3048 54 48.8667V37.1402C54.0002 35.8703 53.554 34.6416 52.7408 33.6726C51.9277 32.7036 50.8003 32.0571 49.5593 31.8482L37.7705 29.8661C36.6493 29.6772 35.4976 29.8561 34.4846 30.3765C33.4715 30.8969 32.6504 31.7314 32.1419 32.7575L31.2224 34.6162C30.8973 34.5354 30.5754 34.4415 30.2577 34.3346C28.6101 33.7821 26.322 32.6448 23.9887 30.2899C21.6554 27.9349 20.5286 25.6256 19.9811 23.9599C19.8504 23.5662 19.7395 23.166 19.6489 22.761H19.6463Z" fill="#002147"/>
</svg>
