<svg width="57" height="46" viewBox="0 0 57 46" fill="none" xmlns="http://www.w3.org/2000/svg">
<path d="M9.2625 2.00537e-08H47.7375C50.1034 -0.000156247 52.3797 0.912967 54.0994 2.55206C55.819 4.19114 56.8518 6.43193 56.9857 8.81475L57 9.34375V36.6562C57.0002 39.0429 56.095 41.3391 54.4701 43.0739C52.8453 44.8087 50.624 45.8505 48.2619 45.9856L47.7375 46H9.2625C6.89661 46.0002 4.62034 45.087 2.90064 43.4479C1.18095 41.8089 0.148196 39.5681 0.0142503 37.1852L1.98793e-08 36.6562V9.34375C-0.000154888 6.9571 0.905029 4.66087 2.52986 2.92609C4.1547 1.19131 6.376 0.149496 8.7381 0.0143753L9.2625 2.00537e-08ZM52.725 15.4474L29.4975 27.7811C29.2352 27.9209 28.947 28.0041 28.6511 28.0253C28.3552 28.0466 28.0582 28.0056 27.7789 27.9047L27.5053 27.784L4.275 15.4502V36.6562C4.27505 37.9189 4.74574 39.1354 5.59364 40.0642C6.44154 40.9931 7.60465 41.5663 8.8521 41.6702L9.2625 41.6875H47.7375C48.9896 41.6874 50.1959 41.2122 51.1168 40.3562C52.0376 39.5003 52.6056 38.3263 52.7079 37.0674L52.725 36.6562V15.4474ZM47.7375 4.3125H9.2625C8.01081 4.31255 6.80489 4.78737 5.88414 5.6427C4.96338 6.49804 4.3951 7.67136 4.2921 8.92975L4.275 9.34375V10.5771L28.5 23.437L52.725 10.5742V9.34375C52.7249 8.08062 52.2538 6.86375 51.4053 5.93484C50.5568 5.00593 49.393 4.43297 48.145 4.32975L47.7375 4.3125Z" fill="#002147"/>
</svg>
