<svg width="46" height="58" viewBox="0 0 46 58" fill="none" xmlns="http://www.w3.org/2000/svg">
<path d="M23 0C10.35 0 0 10.44 0 23.2C0 38.86 20.125 56.55 20.9875 57.42C21.5625 57.71 22.425 58 23 58C23.575 58 24.4375 57.71 25.0125 57.42C25.875 56.55 46 38.86 46 23.2C46 10.44 35.65 0 23 0ZM23 51.33C16.9625 45.53 5.75 33.06 5.75 23.2C5.75 13.63 13.5125 5.8 23 5.8C32.4875 5.8 40.25 13.63 40.25 23.2C40.25 32.77 29.0375 45.53 23 51.33ZM23 11.6C16.675 11.6 11.5 16.82 11.5 23.2C11.5 29.58 16.675 34.8 23 34.8C29.325 34.8 34.5 29.58 34.5 23.2C34.5 16.82 29.325 11.6 23 11.6ZM23 29C19.8375 29 17.25 26.39 17.25 23.2C17.25 20.01 19.8375 17.4 23 17.4C26.1625 17.4 28.75 20.01 28.75 23.2C28.75 26.39 26.1625 29 23 29Z" fill="#002147"/>
</svg>
